<svg xmlns="http://www.w3.org/2000/svg" viewBox="0 0 1651.26 251.18"><defs><style>.cls-1,.cls-4{fill:#69ad3e;}.cls-2,.cls-3{fill:#40403f;}.cls-3,.cls-4{fill-rule:evenodd;}</style></defs><g id="Layer_2" data-name="Layer 2"><g id="Layer_1-2" data-name="Layer 1"><path class="cls-1" d="M242.78,63.18h22.15V163.67h62.34v18.74H242.78Z"/><path class="cls-1" d="M445,131.22q5.79,7.59,5.79,18.83,0,15.49-11.92,23.93t-34.75,8.43H344.81V63.18h55.87q21.12,0,32.54,8.26t11.41,22.74a29.92,29.92,0,0,1-4.09,15.67,28,28,0,0,1-11.24,10.56A31.51,31.51,0,0,1,445,131.22ZM367,80.55v32.87H398.3q11.58,0,17.8-4.17t6.21-12.18q0-8.17-6.21-12.35t-17.8-4.17Zm61.49,67.28q0-17.21-25.72-17.2H367V165h35.77Q428.44,165,428.45,147.83Z"/><path class="cls-1" d="M584,182.41l-.17-79-39.18,65.41h-9.88L495.56,104.4v78H474.43V63.18h18.23l47.35,79,46.5-79h18.23l.17,119.23Z"/><path class="cls-2" d="M655.07,180.19q-12.86-3.91-20.35-10.39l7.66-17.2a60.29,60.29,0,0,0,18,9.45,65.13,65.13,0,0,0,21.38,3.67q13.29,0,19.84-4.26t6.56-11.24a10.91,10.91,0,0,0-3.66-8.44,25.86,25.86,0,0,0-9.29-5.19q-5.61-1.87-15.33-4.26a177,177,0,0,1-22.05-6.47,36.26,36.26,0,0,1-14.48-10.14q-6-6.9-6.05-18.65a31.82,31.82,0,0,1,5.37-18Q648,71,658.82,66.24t26.48-4.77a85.52,85.52,0,0,1,21.47,2.73A59.52,59.52,0,0,1,725,72l-7,17.21a69,69,0,0,0-16.35-7,61.2,61.2,0,0,0-16.53-2.38q-13.11,0-19.5,4.43a13.65,13.65,0,0,0-6.39,11.75,10.61,10.61,0,0,0,3.67,8.35,26.54,26.54,0,0,0,9.28,5.11q5.63,1.88,15.33,4.25a162.72,162.72,0,0,1,21.8,6.39,37.4,37.4,0,0,1,14.56,10.14q6.06,6.81,6,18.39a31.48,31.48,0,0,1-5.36,17.89q-5.37,8-16.27,12.77t-26.57,4.77A90.69,90.69,0,0,1,655.07,180.19Z"/><path class="cls-2" d="M774.73,176.19a58.66,58.66,0,0,1-23-22,60.4,60.4,0,0,1-8.34-31.43,60.37,60.37,0,0,1,8.34-31.42,58.68,58.68,0,0,1,23-22,72.19,72.19,0,0,1,65.75,0,58.86,58.86,0,0,1,23,21.89,60.2,60.2,0,0,1,8.35,31.51,60.17,60.17,0,0,1-8.35,31.51,58.78,58.78,0,0,1-23,21.89,72.19,72.19,0,0,1-65.75,0Zm54.34-16.86a38.81,38.81,0,0,0,15-15,45.24,45.24,0,0,0,0-43.09,38.75,38.75,0,0,0-15-15,45.59,45.59,0,0,0-42.93,0,38.71,38.71,0,0,0-15,15,45.31,45.31,0,0,0,0,43.09,38.77,38.77,0,0,0,15,15,45.66,45.66,0,0,0,42.93,0Z"/><path class="cls-2" d="M895.32,63.18h22.15V163.67h62.34v18.74H895.32Z"/><path class="cls-2" d="M1008.43,170.23q-13.8-13.87-13.8-39.77V63.18h22.14v66.43q0,35.08,30.32,35.08,30.15,0,30.15-35.08V63.18H1099v67.28q0,25.89-13.71,39.77t-38.41,13.88Q1022.23,184.11,1008.43,170.23Z"/><path class="cls-2" d="M1152,81.91H1112.5V63.18h101.18V81.91h-39.52v100.5H1152Z"/><path class="cls-2" d="M1230.37,63.18h22.14V182.41h-22.14Z"/><path class="cls-2" d="M1307.53,176.19a58.59,58.59,0,0,1-23-22,60.4,60.4,0,0,1-8.34-31.43,60.37,60.37,0,0,1,8.34-31.42,58.62,58.62,0,0,1,23-22,72.19,72.19,0,0,1,65.75,0,58.86,58.86,0,0,1,23,21.89,60.29,60.29,0,0,1,8.35,31.51,60.26,60.26,0,0,1-8.35,31.51,58.78,58.78,0,0,1-23,21.89,72.19,72.19,0,0,1-65.75,0Zm54.33-16.86a38.77,38.77,0,0,0,15-15,42.88,42.88,0,0,0,5.45-21.55,42.87,42.87,0,0,0-5.45-21.54,38.71,38.71,0,0,0-15-15,45.57,45.57,0,0,0-42.92,0,38.71,38.71,0,0,0-15,15,42.87,42.87,0,0,0-5.45,21.54,42.88,42.88,0,0,0,5.45,21.55,38.77,38.77,0,0,0,15,15,45.64,45.64,0,0,0,42.92,0Z"/><path class="cls-2" d="M1534.07,63.18V182.41h-18.23l-65.74-80.74v80.74h-22V63.18h18.23l65.75,80.73V63.18Z"/><path class="cls-2" d="M1576.4,180.19q-12.87-3.91-20.36-10.39l7.67-17.2a60.29,60.29,0,0,0,18,9.45,65.08,65.08,0,0,0,21.37,3.67q13.29,0,19.85-4.26t6.56-11.24a10.92,10.92,0,0,0-3.67-8.44,25.73,25.73,0,0,0-9.28-5.19q-5.62-1.87-15.33-4.26a176.72,176.72,0,0,1-22.06-6.47,36.33,36.33,0,0,1-14.48-10.14q-6-6.9-6-18.65a31.89,31.89,0,0,1,5.36-18q5.37-8.09,16.18-12.86t26.49-4.77a85.38,85.38,0,0,1,21.46,2.73A59.59,59.59,0,0,1,1646.32,72l-7,17.21a68.89,68.89,0,0,0-16.36-7,61.13,61.13,0,0,0-16.52-2.38q-13.11,0-19.5,4.43a13.65,13.65,0,0,0-6.39,11.75,10.64,10.64,0,0,0,3.66,8.35,26.59,26.59,0,0,0,9.29,5.11q5.61,1.88,15.33,4.25a163.17,163.17,0,0,1,21.8,6.39,37.4,37.4,0,0,1,14.56,10.14q6,6.81,6,18.39a31.41,31.41,0,0,1-5.37,17.89q-5.36,8-16.26,12.77t-26.58,4.77A90.67,90.67,0,0,1,1576.4,180.19Z"/><path class="cls-3" d="M120.8,79.54A23.59,23.59,0,1,1,97.21,55.81,23.66,23.66,0,0,1,120.8,79.54Z"/><path class="cls-4" d="M120.71,163.55c44.7-74.48,35.64-129.28,35.64-129.28s-23.22,92-72.18,72.3-72.94-11-72.94-11c54.94,10.26,64.45,48.8,60.28,84.67a278.05,278.05,0,0,0,36-11.26q6.81-2.64,13.23-5.47Z"/><path class="cls-3" d="M200.36,116.88c-3.46-9.07-18.52-12.64-39.85-11,13.81,0,23.29,3.07,25.73,9.48,5.68,14.89-28.61,42-76.58,60.52s-91.47,21.5-97.14,6.61c-3-7.86,5.14-19.12,20.54-30.72C9.72,167.35-3.35,183.28.74,194,5.6,206.74,33.21,208.66,69,200.67a231.7,231.7,0,0,1-18.6,50.51A416.2,416.2,0,0,0,105.35,190q3.66-1.31,7.33-2.73c55.13-21.3,94.38-52.81,87.68-70.39Z"/><path class="cls-4" d="M156.1,40.69s-22-10.94,3.34-40.69c0,0,19,29.5-3.34,40.69Z"/></g></g></svg>